<svg version="1.1" id="Layer_1" xmlns="http://www.w3.org/2000/svg" xmlns:xlink="http://www.w3.org/1999/xlink" x="0px" y="0px"
	 width="100%" viewBox="0 0 512 512" enable-background="new 0 0 512 512" xml:space="preserve">
<path fill="#FFFFFF" opacity="1.000000" stroke="none" 
	d="
M328.917969,1.441567 
	C388.985596,1.000000 448.971283,1.033709 508.956635,0.909815 
	C512.284607,0.902942 513.102356,1.442116 513.099976,4.954977 
	C512.985474,172.914597 512.981873,340.874298 513.114136,508.833923 
	C513.117126,512.671570 512.041748,513.079102 508.667969,513.077332 
	C340.874939,512.989197 173.081833,512.987183 5.288831,513.087952 
	C1.791707,513.090027 0.892236,512.505676 0.894921,508.790741 
	C1.016189,340.997742 1.017461,173.204636 0.893173,5.411660 
	C0.890249,1.465534 1.998043,0.896011 5.586655,0.912125 
	C38.744793,1.061025 71.903877,1.000000 105.531342,1.000000 
	C105.442848,4.069136 102.566307,3.767408 100.579910,4.538388 
	C77.006546,13.687883 62.282532,30.349478 57.170544,55.273117 
	C56.563301,58.233723 56.472229,61.220291 56.472305,64.224220 
	C56.475483,192.024445 56.455814,319.824646 56.489052,447.624878 
	C56.497780,481.175873 85.937508,510.500000 119.592583,510.512573 
	C211.235474,510.546814 302.879913,510.231506 394.520447,510.697479 
	C423.108643,510.842834 452.927490,488.360657 458.482971,457.036652 
	C459.183441,453.087219 459.543915,449.129822 459.542969,445.111328 
	C459.519470,346.636841 459.485535,248.162308 459.613037,149.687988 
	C459.621399,143.232147 457.645355,138.328812 453.214813,133.628174 
	C433.111847,112.299797 412.744324,91.226387 392.532013,70.004250 
	C372.320038,48.782463 352.269348,27.407238 331.832336,6.399891 
	C330.555756,5.087680 329.214478,3.799705 328.917969,1.441567 
z"/>
<path fill="#000000" opacity="1.000000" stroke="none" 
	d="
M328.531342,0.999998 
	C329.354675,1.533918 329.635529,2.139642 330.074768,2.591298 
	C342.227112,15.087286 354.591431,27.383993 366.509979,40.098652 
	C380.329956,54.841690 394.348663,69.387566 408.321259,83.982368 
	C421.716553,97.974144 434.757111,112.305504 448.463470,126.005966 
	C451.833679,129.374695 455.014374,132.958542 458.022614,136.654739 
	C459.965149,139.041519 461.062744,141.797867 461.060303,145.139114 
	C460.986328,246.624329 461.150116,348.110077 460.831543,449.594360 
	C460.785919,464.138824 454.759125,477.175903 445.177673,488.294952 
	C435.803925,499.172882 424.266144,506.682770 410.284637,510.277557 
	C406.832275,511.165161 403.405518,512.029236 399.770691,512.027832 
	C306.117615,511.992493 212.464523,511.972076 118.811478,512.030457 
	C104.987061,512.039185 92.829842,507.183136 81.950974,499.289673 
	C70.246582,490.797211 62.187881,479.379852 57.836159,465.451202 
	C56.132492,459.998199 54.965401,454.528168 54.967304,448.759064 
	C55.009945,319.611145 54.931255,190.463135 55.102341,61.315449 
	C55.120190,47.841999 60.821545,36.079597 69.000931,25.452757 
	C77.589714,14.294002 88.777588,7.014744 101.963280,2.558205 
	C103.178879,2.147355 104.487785,2.012584 105.876678,1.374809 
	C180.020889,1.000000 254.041794,1.000000 328.531342,0.999998 
z"/>
<path fill="#FFFFFF" opacity="1.000000" stroke="none" 
	d="
M328.316284,144.813110 
	C335.962982,150.317627 343.723541,154.834106 352.813660,156.315567 
	C357.797302,157.127792 362.856476,157.882843 367.887848,157.925323 
	C388.885559,158.102661 409.885986,158.057709 430.884491,157.936172 
	C433.941498,157.918503 435.090485,158.426117 435.086578,161.897141 
	C434.978516,257.726776 435.071045,353.556732 434.861420,449.386047 
	C434.845154,456.825195 431.453766,463.712280 426.794342,469.675232 
	C420.661255,477.524170 412.902985,483.065430 403.119049,485.343567 
	C399.341125,486.223206 395.415497,486.928436 391.556396,486.932251 
	C302.559814,487.020050 213.562119,487.219360 124.567131,486.831879 
	C104.567451,486.744843 91.832436,477.962555 83.377350,460.402191 
	C80.787193,455.022675 80.022430,448.570160 80.021034,442.370850 
	C79.992905,318.042145 79.811409,193.712875 80.179695,69.385269 
	C80.243462,47.858883 91.403435,32.616673 113.691437,26.221907 
	C117.247437,25.201637 121.146164,25.052799 124.887077,25.048483 
	C184.551437,24.979656 244.216171,25.069868 303.879913,24.865368 
	C308.576813,24.849270 309.124939,26.330809 309.091003,30.393240 
	C308.901703,53.057484 309.165039,75.725708 308.947906,98.389458 
	C308.773590,116.581841 314.426147,132.175659 328.316284,144.813110 
z"/>
<path fill="#FFFFFF" opacity="1.000000" stroke="none" 
	d="
M414.791992,129.298737 
	C415.217255,130.387894 418.541962,131.857742 414.990967,131.900986 
	C397.510406,132.113831 379.954010,132.977112 362.563019,131.709381 
	C345.643280,130.476013 334.700317,118.123764 334.948364,99.699516 
	C335.187195,81.960999 335.000000,64.216743 335.000000,45.440186 
	C342.405884,53.145042 349.247101,59.943890 355.795135,67.097267 
	C367.213928,79.571770 379.725952,91.059608 390.918335,103.722397 
	C398.573822,112.383652 407.702667,119.630005 414.791992,129.298737 
z"/>
<path fill="#000000" opacity="1.000000" stroke="none" 
	d="
M271.000000,221.338226 
	C271.000000,263.441681 271.026245,305.087036 270.981781,346.732300 
	C270.970459,357.336090 265.250336,361.084503 258.359161,362.003601 
	C251.938995,362.859863 244.874191,355.968994 244.905197,348.965393 
	C245.094772,306.154846 245.000000,263.343018 245.000000,220.531631 
	C245.000000,219.219849 245.000000,217.908081 245.000000,216.596298 
	C245.487091,217.131500 245.974197,217.666687 246.461288,218.201889 
	C239.614090,224.001190 232.402466,229.428986 226.013824,235.695770 
	C218.381134,243.182861 211.667664,251.601334 204.130249,259.193665 
	C200.237045,263.115173 197.379669,267.908264 192.584778,271.159088 
	C188.273773,274.081787 179.208023,273.315918 175.134964,268.747345 
	C171.752945,264.953888 172.049194,255.369644 175.832611,251.525513 
	C185.908264,241.288116 195.689011,230.749832 205.331177,220.099579 
	C214.195847,210.308136 223.308716,200.751938 232.233093,191.026932 
	C237.267258,185.541107 242.881851,180.578140 247.529373,174.806122 
	C253.006790,168.003387 262.179504,168.001953 267.929535,174.695984 
	C273.946533,181.700836 280.966339,187.713440 286.684052,195.008041 
	C291.150146,200.705826 296.837921,205.359756 301.599548,210.903259 
	C308.603027,219.056671 316.784058,226.206650 323.689606,234.433655 
	C329.092865,240.870865 335.688080,246.150467 340.619324,253.005753 
	C344.738708,258.732483 342.848450,266.222992 338.102142,270.442963 
	C333.931610,274.151001 325.991180,274.381073 321.586884,269.913574 
	C309.203033,257.351929 297.208801,244.411224 285.581299,231.134216 
	C281.138641,226.061340 275.665466,221.940018 271.256134,215.722214 
	C271.151306,217.833618 271.075653,219.356857 271.000000,221.338226 
z"/>
<path fill="#000000" opacity="1.000000" stroke="none" 
	d="
M167.006714,427.000000 
	C160.719269,426.373322 154.654755,428.554443 149.132523,425.063202 
	C145.581085,422.817963 142.417999,416.719849 143.005203,412.621368 
	C143.639282,408.195679 148.426926,403.081482 152.658539,401.966461 
	C155.864716,401.121643 159.077591,400.981171 162.355713,400.982391 
	C226.476730,401.006073 290.597748,401.001770 354.718781,400.995544 
	C358.624847,400.995148 362.375580,401.443573 365.932343,403.333588 
	C372.173309,406.650085 373.535614,412.048462 371.873413,418.897491 
	C370.990356,422.536011 364.954315,427.181366 358.868378,427.157104 
	C295.081482,426.902710 231.293137,427.000000 167.006714,427.000000 
z"/>
</svg>